<svg width="24" height="24" viewBox="0 0 24 24" fill="none" xmlns="http://www.w3.org/2000/svg">
<path d="M4.5 9C4.35 9 4.22933 8.95433 4.138 8.863C4.046 8.771 4 8.65 4 8.5V5.625C4 5.15833 4.15433 4.771 4.463 4.463C4.771 4.15433 5.15833 4 5.625 4H8.5C8.65 4 8.771 4.04567 8.863 4.137C8.95433 4.229 9 4.35 9 4.5C9 4.65 8.95433 4.77067 8.863 4.862C8.771 4.954 8.65 5 8.5 5H5.625C5.44167 5 5.29167 5.05833 5.175 5.175C5.05833 5.29167 5 5.44167 5 5.625V8.5C5 8.65 4.95433 8.771 4.863 8.863C4.771 8.95433 4.65 9 4.5 9ZM5.625 20C5.15833 20 4.771 19.846 4.463 19.538C4.15433 19.2293 4 18.8417 4 18.375V15.5C4 15.35 4.046 15.229 4.138 15.137C4.22933 15.0457 4.35 15 4.5 15C4.65 15 4.771 15.0457 4.863 15.137C4.95433 15.229 5 15.35 5 15.5V18.375C5 18.5583 5.05833 18.7083 5.175 18.825C5.29167 18.9417 5.44167 19 5.625 19H8.5C8.65 19 8.771 19.0457 8.863 19.137C8.95433 19.229 9 19.35 9 19.5C9 19.65 8.95433 19.771 8.863 19.863C8.771 19.9543 8.65 20 8.5 20H5.625ZM15.5 20C15.35 20 15.229 19.9543 15.137 19.863C15.0457 19.771 15 19.65 15 19.5C15 19.35 15.0457 19.229 15.137 19.137C15.229 19.0457 15.35 19 15.5 19H18.375C18.5583 19 18.7083 18.9417 18.825 18.825C18.9417 18.7083 19 18.5583 19 18.375V15.5C19 15.35 19.046 15.229 19.138 15.137C19.2293 15.0457 19.35 15 19.5 15C19.65 15 19.771 15.0457 19.863 15.137C19.9543 15.229 20 15.35 20 15.5V18.375C20 18.8417 19.846 19.2293 19.538 19.538C19.2293 19.846 18.8417 20 18.375 20H15.5ZM19.5 9C19.35 9 19.2293 8.95433 19.138 8.863C19.046 8.771 19 8.65 19 8.5V5.625C19 5.44167 18.9417 5.29167 18.825 5.175C18.7083 5.05833 18.5583 5 18.375 5H15.5C15.35 5 15.229 4.954 15.137 4.862C15.0457 4.77067 15 4.65 15 4.5C15 4.35 15.0457 4.229 15.137 4.137C15.229 4.04567 15.35 4 15.5 4H18.375C18.8417 4 19.2293 4.15433 19.538 4.463C19.846 4.771 20 5.15833 20 5.625V8.5C20 8.65 19.9543 8.771 19.863 8.863C19.771 8.95433 19.65 9 19.5 9Z" fill="white"/>
</svg>
