<svg width="24" height="24" viewBox="0 0 24 24" fill="none" xmlns="http://www.w3.org/2000/svg">
<path d="M6.99997 13.3C7.16664 13.25 7.3333 13.2167 7.49997 13.2C7.66664 13.1834 7.8333 13.1584 7.99997 13.125V7.57505L4.87497 9.30005L3.84997 7.55005L7.69997 5.32505C8.09997 6.14172 8.6833 6.79172 9.44997 7.27505C10.2166 7.75838 11.0666 8.00005 12 8.00005C12.9333 8.00005 13.7833 7.75838 14.55 7.27505C15.3166 6.79172 15.9 6.14172 16.3 5.32505L20.125 7.55005L19.125 9.30005L16 7.57505V17.075C16.0666 17.0584 16.1293 17.0334 16.188 17C16.246 16.9667 16.2916 16.9334 16.325 16.9L17 16.325V9.27505L18.8 10.275C18.9833 10.375 19.1833 10.3957 19.4 10.337C19.6166 10.279 19.7833 10.15 19.9 9.95005L21.075 7.87505C21.1916 7.69172 21.225 7.49172 21.175 7.27505C21.125 7.05838 21 6.88338 20.8 6.75005L16.625 4.35005C16.525 4.30005 16.425 4.25838 16.325 4.22505C16.225 4.19172 16.1166 4.17505 16 4.17505C15.9 4.17505 15.8083 4.20405 15.725 4.26205C15.6416 4.32072 15.5833 4.40005 15.55 4.50005C15.25 5.26672 14.796 5.87505 14.188 6.32505C13.5793 6.77505 12.85 7.00005 12 7.00005C11.15 7.00005 10.4206 6.77505 9.81197 6.32505C9.20397 5.87505 8.74997 5.26672 8.44997 4.50005C8.41664 4.40005 8.36264 4.32072 8.28797 4.26205C8.21264 4.20405 8.11664 4.17505 7.99997 4.17505C7.8833 4.17505 7.77497 4.19172 7.67497 4.22505C7.57497 4.25838 7.47497 4.30005 7.37497 4.35005L3.19997 6.75005C2.99997 6.86672 2.87064 7.03338 2.81197 7.25005C2.75397 7.46672 2.7833 7.67505 2.89997 7.87505L4.09997 9.97505C4.21664 10.175 4.3833 10.3 4.59997 10.35C4.81664 10.4 5.01664 10.375 5.19997 10.275L6.99997 9.27505V13.3ZM8.37497 16.025C8.04164 16.025 7.7083 16.075 7.37497 16.175C7.04164 16.275 6.74997 16.4334 6.49997 16.65L5.07497 17.85C4.9583 17.95 4.83764 18 4.71297 18C4.58764 18 4.47497 17.9417 4.37497 17.825C4.29164 17.7084 4.2543 17.5834 4.26297 17.45C4.27097 17.3167 4.3333 17.2 4.44997 17.1L5.84997 15.9C6.19997 15.6 6.59564 15.375 7.03697 15.225C7.47897 15.075 7.92497 15 8.37497 15C8.82497 15 9.26664 15.075 9.69997 15.225C10.1333 15.375 10.525 15.6 10.875 15.9L13.775 18.375C14.025 18.5917 14.3166 18.754 14.65 18.862C14.9833 18.9707 15.3166 19.025 15.65 19.025C15.9833 19.025 16.3126 18.9707 16.638 18.862C16.9626 18.754 17.25 18.5917 17.5 18.375L18.9 17.15C19.0166 17.0667 19.1416 17.0294 19.275 17.038C19.4083 17.046 19.525 17.1084 19.625 17.225C19.7083 17.3417 19.746 17.4667 19.738 17.6C19.7293 17.7334 19.6666 17.8417 19.55 17.925L18.15 19.125C17.8 19.425 17.4083 19.65 16.975 19.8C16.5416 19.95 16.1 20.025 15.65 20.025C15.2 20.025 14.754 19.95 14.312 19.8C13.8706 19.65 13.475 19.425 13.125 19.125L10.225 16.65C9.97497 16.4334 9.68764 16.275 9.36297 16.175C9.03764 16.075 8.7083 16.025 8.37497 16.025Z" fill="white"/>
</svg>
