<svg width="20" height="16" viewBox="0 0 20 16" fill="none" xmlns="http://www.w3.org/2000/svg">
<path d="M16.9308 1.2793C15.6561 0.694401 14.2892 0.263472 12.8599 0.0166603C12.8339 0.011897 12.8079 0.0238009 12.7945 0.0476094C12.6187 0.360289 12.4239 0.768204 12.2876 1.08882C10.7503 0.858683 9.22099 0.858683 7.71527 1.08882C7.57887 0.761077 7.37707 0.360289 7.20048 0.0476094C7.18707 0.0245953 7.16107 0.0126913 7.13504 0.0166603C5.70659 0.262683 4.33963 0.693612 3.06411 1.2793C3.05307 1.28406 3.04361 1.29201 3.03732 1.30232C0.444493 5.17595 -0.265792 8.95437 0.0826501 12.686C0.0842267 12.7042 0.0944749 12.7217 0.108665 12.7328C1.81934 13.989 3.47642 14.7517 5.10273 15.2572C5.12876 15.2652 5.15634 15.2557 5.1729 15.2342C5.55761 14.7089 5.90054 14.1549 6.19456 13.5724C6.21192 13.5383 6.19535 13.4978 6.15989 13.4843C5.61594 13.278 5.098 13.0264 4.59977 12.7407C4.56037 12.7177 4.55721 12.6613 4.59346 12.6343C4.69831 12.5558 4.80318 12.474 4.9033 12.3915C4.92141 12.3764 4.94665 12.3732 4.96794 12.3828C8.24107 13.8772 11.7846 13.8772 15.0191 12.3828C15.0404 12.3725 15.0657 12.3756 15.0846 12.3907C15.1847 12.4732 15.2895 12.5558 15.3952 12.6343C15.4314 12.6613 15.4291 12.7177 15.3897 12.7407C14.8914 13.032 14.3735 13.278 13.8288 13.4835C13.7933 13.497 13.7775 13.5383 13.7949 13.5724C14.0952 14.1541 14.4381 14.7081 14.8157 15.2334C14.8315 15.2557 14.8599 15.2652 14.8859 15.2572C16.5201 14.7517 18.1772 13.989 19.8879 12.7328C19.9028 12.7217 19.9123 12.705 19.9139 12.6867C20.3309 8.37263 19.2154 4.62519 16.9568 1.30311C16.9513 1.29201 16.9419 1.28406 16.9308 1.2793ZM6.68335 10.4138C5.69792 10.4138 4.88594 9.50911 4.88594 8.39804C4.88594 7.28696 5.68217 6.38226 6.68335 6.38226C7.69239 6.38226 8.49651 7.29491 8.48073 8.39804C8.48073 9.50911 7.68451 10.4138 6.68335 10.4138ZM13.329 10.4138C12.3435 10.4138 11.5316 9.50911 11.5316 8.39804C11.5316 7.28696 12.3278 6.38226 13.329 6.38226C14.338 6.38226 15.1421 7.29491 15.1264 8.39804C15.1264 9.50911 14.338 10.4138 13.329 10.4138Z" fill="white"/>
</svg>
