<svg width="24" height="24" viewBox="0 0 24 24" fill="none" xmlns="http://www.w3.org/2000/svg">
<path d="M6.95386 21.5C7.85386 21.5 8.59986 21.25 9.19186 20.75C9.78319 20.25 10.2455 19.5333 10.5789 18.6C10.8455 17.8667 11.1372 17.3 11.4539 16.9C11.7705 16.5 12.3872 15.9417 13.3039 15.225C14.3039 14.4083 15.0789 13.5 15.6289 12.5C16.1789 11.5 16.4539 10.3333 16.4539 9C16.4539 7.15 15.8372 5.604 14.6039 4.362C13.3705 3.12066 11.8205 2.5 9.95386 2.5C8.27052 2.5 6.83719 3.00833 5.65386 4.025C4.47052 5.04166 3.77052 6.35 3.55386 7.95C3.53719 8.08333 3.57452 8.20833 3.66586 8.325C3.75786 8.44166 3.88719 8.5 4.05386 8.5C4.17052 8.5 4.27452 8.45833 4.36586 8.375C4.45786 8.29166 4.51219 8.18333 4.52886 8.05C4.71219 6.71666 5.31619 5.625 6.34086 4.775C7.36619 3.925 8.57052 3.5 9.95386 3.5C11.5039 3.5 12.8079 4.02933 13.8659 5.088C14.9245 6.146 15.4539 7.45 15.4539 9C15.4539 10.1833 15.1872 11.2373 14.6539 12.162C14.1205 13.0873 13.4289 13.8667 12.5789 14.5C11.7955 15.1 11.1912 15.6667 10.7659 16.2C10.3412 16.7333 9.97886 17.3833 9.67886 18.15C9.39552 18.9 9.04952 19.479 8.64086 19.887C8.23286 20.2957 7.67052 20.5 6.95386 20.5C6.43719 20.5 5.96652 20.35 5.54186 20.05C5.11652 19.75 4.81219 19.3583 4.62886 18.875C4.57886 18.775 4.51652 18.6877 4.44186 18.613C4.36652 18.5377 4.27052 18.5 4.15386 18.5C3.97052 18.5 3.82886 18.5627 3.72886 18.688C3.62886 18.8127 3.59552 18.9583 3.62886 19.125C3.86219 19.825 4.27886 20.3957 4.87886 20.837C5.47886 21.279 6.17052 21.5 6.95386 21.5ZM18.0789 15.625C18.8289 14.7083 19.4122 13.6873 19.8289 12.562C20.2455 11.4373 20.4539 10.25 20.4539 9C20.4539 7.73333 20.2455 6.529 19.8289 5.387C19.4122 4.24566 18.8289 3.225 18.0789 2.325C17.9789 2.20833 17.8622 2.14566 17.7289 2.137C17.5955 2.129 17.4705 2.175 17.3539 2.275C17.2705 2.35833 17.2205 2.46666 17.2039 2.6C17.1872 2.73333 17.2289 2.85833 17.3289 2.975C18.0122 3.80833 18.5372 4.73333 18.9039 5.75C19.2705 6.76666 19.4539 7.85 19.4539 9C19.4539 10.1333 19.2705 11.204 18.9039 12.212C18.5372 13.2207 18.0122 14.1417 17.3289 14.975C17.2289 15.0917 17.1832 15.2167 17.1919 15.35C17.1999 15.4833 17.2539 15.5917 17.3539 15.675C17.4539 15.775 17.5749 15.8167 17.7169 15.8C17.8582 15.7833 17.9789 15.725 18.0789 15.625Z" fill="white"/>
</svg>
