<svg width="24" height="24" viewBox="0 0 24 24" fill="none" xmlns="http://www.w3.org/2000/svg">
<path d="M12 15.15C13.0166 15.15 13.8793 14.7957 14.588 14.087C15.296 13.379 15.65 12.5167 15.65 11.5C15.65 10.4833 15.296 9.62067 14.588 8.912C13.8793 8.204 13.0166 7.85 12 7.85C10.9833 7.85 10.121 8.204 9.41298 8.912C8.70431 9.62067 8.34998 10.4833 8.34998 11.5C8.34998 12.5167 8.70431 13.379 9.41298 14.087C10.121 14.7957 10.9833 15.15 12 15.15ZM12 14.2C11.25 14.2 10.6126 13.9373 10.088 13.412C9.56264 12.8873 9.29998 12.25 9.29998 11.5C9.29998 10.75 9.56264 10.1123 10.088 9.587C10.6126 9.06233 11.25 8.8 12 8.8C12.75 8.8 13.3876 9.06233 13.913 9.587C14.4376 10.1123 14.7 10.75 14.7 11.5C14.7 12.25 14.4376 12.8873 13.913 13.412C13.3876 13.9373 12.75 14.2 12 14.2ZM12 18C9.93331 18 8.03731 17.4623 6.31198 16.387C4.58731 15.3123 3.25831 13.85 2.32498 12C2.29164 11.9333 2.26664 11.8583 2.24998 11.775C2.23331 11.6917 2.22498 11.6 2.22498 11.5C2.22498 11.4 2.23331 11.3083 2.24998 11.225C2.26664 11.1417 2.29164 11.0667 2.32498 11C3.25831 9.15 4.58731 7.68733 6.31198 6.612C8.03731 5.53733 9.93331 5 12 5C14.0666 5 15.9626 5.53733 17.688 6.612C19.4126 7.68733 20.7416 9.15 21.675 11C21.7083 11.0667 21.7333 11.1417 21.75 11.225C21.7666 11.3083 21.775 11.4 21.775 11.5C21.775 11.6 21.7666 11.6917 21.75 11.775C21.7333 11.8583 21.7083 11.9333 21.675 12C20.7416 13.85 19.4126 15.3123 17.688 16.387C15.9626 17.4623 14.0666 18 12 18ZM12 17C13.8833 17 15.6126 16.504 17.188 15.512C18.7626 14.5207 19.9666 13.1833 20.8 11.5C19.9666 9.81667 18.7626 8.479 17.188 7.487C15.6126 6.49567 13.8833 6 12 6C10.1166 6 8.38731 6.49567 6.81198 7.487C5.23731 8.479 4.03331 9.81667 3.19998 11.5C4.03331 13.1833 5.23731 14.5207 6.81198 15.512C8.38731 16.504 10.1166 17 12 17Z" fill="white"/>
</svg>
