<svg width="24" height="24" viewBox="0 0 24 24" fill="none" xmlns="http://www.w3.org/2000/svg">
<path d="M9 14.25C8.65 14.25 8.35433 14.129 8.113 13.887C7.871 13.6457 7.75 13.35 7.75 13C7.75 12.65 7.871 12.3543 8.113 12.113C8.35433 11.871 8.65 11.75 9 11.75C9.35 11.75 9.64567 11.871 9.887 12.113C10.129 12.3543 10.25 12.65 10.25 13C10.25 13.35 10.129 13.6457 9.887 13.887C9.64567 14.129 9.35 14.25 9 14.25ZM15 14.25C14.65 14.25 14.3543 14.129 14.113 13.887C13.871 13.6457 13.75 13.35 13.75 13C13.75 12.65 13.871 12.3543 14.113 12.113C14.3543 11.871 14.65 11.75 15 11.75C15.35 11.75 15.6457 11.871 15.887 12.113C16.129 12.3543 16.25 12.65 16.25 13C16.25 13.35 16.129 13.6457 15.887 13.887C15.6457 14.129 15.35 14.25 15 14.25ZM12 20C14.2333 20 16.125 19.225 17.675 17.675C19.225 16.125 20 14.2333 20 12C20 11.6 19.975 11.2123 19.925 10.837C19.875 10.4623 19.7833 10.1 19.65 9.75C19.3 9.83333 18.95 9.896 18.6 9.938C18.25 9.97933 17.8833 10 17.5 10C15.9833 10 14.55 9.675 13.2 9.025C11.85 8.375 10.7 7.46667 9.75 6.3C9.21667 7.6 8.45433 8.72933 7.463 9.688C6.471 10.646 5.31667 11.3667 4 11.85V12C4 14.2333 4.775 16.125 6.325 17.675C7.875 19.225 9.76667 20 12 20ZM12 21C10.75 21 9.57933 20.7627 8.488 20.288C7.396 19.8127 6.446 19.1707 5.638 18.362C4.82933 17.554 4.18733 16.604 3.712 15.512C3.23733 14.4207 3 13.25 3 12C3 10.75 3.23733 9.579 3.712 8.487C4.18733 7.39567 4.82933 6.44567 5.638 5.637C6.446 4.829 7.396 4.18733 8.488 3.712C9.57933 3.23733 10.75 3 12 3C13.25 3 14.421 3.23733 15.513 3.712C16.6043 4.18733 17.5543 4.829 18.363 5.637C19.171 6.44567 19.8127 7.39567 20.288 8.487C20.7627 9.579 21 10.75 21 12C21 13.25 20.7627 14.4207 20.288 15.512C19.8127 16.604 19.171 17.554 18.363 18.362C17.5543 19.1707 16.6043 19.8127 15.513 20.288C14.421 20.7627 13.25 21 12 21ZM9.7 4.325C10.5167 5.94167 11.671 7.125 13.163 7.875C14.6543 8.625 16.1 9 17.5 9C17.8167 9 18.125 8.98333 18.425 8.95C18.725 8.91667 19.0167 8.86667 19.3 8.8C18.6667 7.31667 17.6833 6.14567 16.35 5.287C15.0167 4.429 13.5667 4 12 4C11.5667 4 11.1667 4.025 10.8 4.075C10.4333 4.125 10.0667 4.20833 9.7 4.325ZM4.125 10.7C5.15833 10.25 6.20433 9.504 7.263 8.462C8.321 7.42067 8.94167 6.10833 9.125 4.525C7.775 5.04167 6.66267 5.846 5.788 6.938C4.91267 8.02933 4.35833 9.28333 4.125 10.7Z" fill="white"/>
</svg>
