<svg width="24" height="24" viewBox="0 0 24 24" fill="none" xmlns="http://www.w3.org/2000/svg">
<path d="M12.65 22.55C10.6166 22.55 8.94995 21.8957 7.64995 20.587C6.34995 19.279 5.69995 17.6083 5.69995 15.575V7.45C5.69995 7 5.84595 6.625 6.13795 6.325C6.42928 6.025 6.80828 5.875 7.27495 5.875C7.55828 5.875 7.79162 5.95833 7.97495 6.125C8.15828 6.29167 8.29162 6.5 8.37495 6.75V4.45C8.37495 4 8.52495 3.625 8.82495 3.325C9.12495 3.025 9.49995 2.875 9.94995 2.875C10.2333 2.875 10.471 2.929 10.663 3.037C10.8543 3.14567 10.9916 3.29167 11.075 3.475C11.075 2.825 11.2083 2.31267 11.475 1.938C11.7416 1.56267 12.1333 1.375 12.65 1.375C13.0833 1.375 13.4583 1.51667 13.775 1.8C14.0916 2.08333 14.2666 2.43333 14.3 2.85V4C14.4 3.81667 14.5416 3.66667 14.725 3.55C14.9083 3.43333 15.1166 3.375 15.35 3.375C15.8 3.375 16.175 3.525 16.475 3.825C16.775 4.125 16.925 4.5 16.925 4.95V9.675C17.025 9.40833 17.179 9.20833 17.387 9.075C17.5956 8.94167 17.8166 8.875 18.05 8.875C18.5 8.875 18.875 9.025 19.175 9.325C19.475 9.625 19.625 10 19.625 10.45V15.575C19.625 17.6083 18.971 19.279 17.663 20.587C16.3543 21.8957 14.6833 22.55 12.65 22.55ZM12.65 21.55C13.5333 21.55 14.3376 21.4 15.063 21.1C15.7876 20.8 16.4126 20.3873 16.938 19.862C17.4626 19.3373 17.875 18.7123 18.175 17.987C18.475 17.2623 18.625 16.4583 18.625 15.575V10.45C18.625 10.2833 18.5706 10.1457 18.462 10.037C18.354 9.929 18.2166 9.875 18.05 9.875C17.8666 9.875 17.721 9.929 17.613 10.037C17.5043 10.1457 17.45 10.2833 17.45 10.45V13.475C17.45 13.7583 17.3873 13.9873 17.262 14.162C17.1373 14.3373 16.9333 14.4833 16.65 14.6C15.9833 14.7833 15.4373 15.1 15.012 15.55C14.5873 16 14.275 16.5333 14.075 17.15C14.0416 17.3167 13.9583 17.45 13.825 17.55C13.6916 17.65 13.5416 17.7 13.375 17.7C13.1583 17.7 12.9833 17.6207 12.85 17.462C12.7166 17.304 12.6833 17.1167 12.75 16.9C13 16.0333 13.4 15.3083 13.95 14.725C14.5 14.1417 15.1583 13.6917 15.925 13.375V4.95C15.925 4.78333 15.871 4.64567 15.763 4.537C15.6543 4.429 15.5166 4.375 15.35 4.375C15.1833 4.375 15.046 4.429 14.938 4.537C14.8293 4.64567 14.775 4.78333 14.775 4.95V10.7C14.775 10.9167 14.7 11.0957 14.55 11.237C14.4 11.379 14.2166 11.45 14 11.45C13.8 11.45 13.621 11.375 13.463 11.225C13.3043 11.075 13.225 10.9 13.225 10.7V2.95C13.225 2.78333 13.1706 2.64567 13.062 2.537C12.954 2.429 12.8166 2.375 12.65 2.375C12.4833 2.375 12.346 2.429 12.238 2.537C12.1293 2.64567 12.075 2.78333 12.075 2.95V10.7C12.075 10.9167 12 11.0957 11.85 11.237C11.7 11.379 11.5166 11.45 11.3 11.45C11.1 11.45 10.925 11.375 10.775 11.225C10.625 11.075 10.55 10.9 10.55 10.7V4.45C10.55 4.28333 10.496 4.14567 10.388 4.037C10.2793 3.929 10.1333 3.875 9.94995 3.875C9.78328 3.875 9.64595 3.929 9.53795 4.037C9.42928 4.14567 9.37495 4.28333 9.37495 4.45V11.7C9.37495 11.9167 9.30428 12.0957 9.16295 12.237C9.02095 12.379 8.84162 12.45 8.62495 12.45C8.40828 12.45 8.22495 12.375 8.07495 12.225C7.92495 12.075 7.84995 11.9 7.84995 11.7V7.45C7.84995 7.28333 7.79595 7.14567 7.68795 7.037C7.57928 6.929 7.44162 6.875 7.27495 6.875C7.09162 6.875 6.94995 6.929 6.84995 7.037C6.74995 7.14567 6.69995 7.28333 6.69995 7.45V15.575C6.69995 16.4583 6.84595 17.2623 7.13795 17.987C7.42928 18.7123 7.83762 19.3373 8.36295 19.862C8.88762 20.3873 9.51662 20.8 10.25 21.1C10.9833 21.4 11.7833 21.55 12.65 21.55Z" fill="white"/>
</svg>
