<svg width="24" height="24" viewBox="0 0 24 24" fill="none" xmlns="http://www.w3.org/2000/svg">
<path d="M12.5 21.375C12.35 21.375 12.229 21.3293 12.137 21.238C12.0457 21.146 12 21.025 12 20.875C12 20.7417 12.0457 20.625 12.137 20.525C12.229 20.425 12.35 20.375 12.5 20.375H18.375C18.5583 20.375 18.7083 20.3207 18.825 20.212C18.9417 20.104 19 19.9583 19 19.775V19H17.55C17.1 19 16.7167 18.8417 16.4 18.525C16.0833 18.2083 15.925 17.825 15.925 17.375V14.45C15.925 14.0167 16.0833 13.6417 16.4 13.325C16.7167 13.0083 17.1 12.85 17.55 12.85H19V11C19 9.06667 18.3167 7.41667 16.95 6.05C15.5833 4.68333 13.9333 4 12 4C10.0667 4 8.41667 4.68333 7.05 6.05C5.68333 7.41667 5 9.06667 5 11V12.85H6.45C6.9 12.85 7.28333 13.0083 7.6 13.325C7.91667 13.6417 8.075 14.0167 8.075 14.45V17.375C8.075 17.825 7.91667 18.2083 7.6 18.525C7.28333 18.8417 6.9 19 6.45 19H5.625C5.15833 19 4.771 18.846 4.463 18.538C4.15433 18.2293 4 17.8417 4 17.375V11C4 9.9 4.20833 8.86267 4.625 7.888C5.04167 6.91267 5.61267 6.06267 6.338 5.338C7.06267 4.61267 7.91267 4.04167 8.888 3.625C9.86267 3.20833 10.9 3 12 3C13.1 3 14.1377 3.20833 15.113 3.625C16.0877 4.04167 16.9377 4.61267 17.663 5.338C18.3877 6.06267 18.9583 6.91267 19.375 7.888C19.7917 8.86267 20 9.9 20 11V19.775C20 20.225 19.846 20.6043 19.538 20.913C19.2293 21.221 18.8417 21.375 18.375 21.375H12.5ZM5.625 18H6.45C6.63333 18 6.78333 17.9417 6.9 17.825C7.01667 17.7083 7.075 17.5583 7.075 17.375V14.45C7.075 14.2833 7.01667 14.1417 6.9 14.025C6.78333 13.9083 6.63333 13.85 6.45 13.85H5V17.375C5 17.5583 5.05833 17.7083 5.175 17.825C5.29167 17.9417 5.44167 18 5.625 18ZM17.55 18H19V13.85H17.55C17.3667 13.85 17.2167 13.9083 17.1 14.025C16.9833 14.1417 16.925 14.2833 16.925 14.45V17.375C16.925 17.5583 16.9833 17.7083 17.1 17.825C17.2167 17.9417 17.3667 18 17.55 18ZM5.625 18H5H7.075H6.45H5.625ZM17.55 18H16.925H19H17.55Z" fill="white"/>
</svg>
