<svg width="24" height="25" viewBox="0 0 24 25" fill="none" xmlns="http://www.w3.org/2000/svg">
<path d="M12.0053 4.63664C14.4114 4.63664 14.6963 4.64719 15.6426 4.68939C16.522 4.72807 16.9969 4.87575 17.3135 4.99882C17.7321 5.16058 18.0346 5.35749 18.3477 5.67044C18.6643 5.98691 18.8577 6.2858 19.0195 6.70424C19.1427 7.0207 19.2904 7.49892 19.3291 8.37448C19.3713 9.32389 19.3819 9.60871 19.3819 12.0104C19.3819 14.4155 19.3713 14.7003 19.3291 15.6462C19.2904 16.5253 19.1427 17 19.0195 17.3165C18.8577 17.7349 18.6607 18.0373 18.3477 18.3503C18.0311 18.6667 17.7321 18.8601 17.3135 19.0219C16.9969 19.1449 16.5185 19.2926 15.6426 19.3313C14.6928 19.3735 14.4079 19.3841 12.0053 19.3841C9.59918 19.3841 9.31425 19.3735 8.36799 19.3313C7.48857 19.2926 7.01368 19.1449 6.69709 19.0219C6.27848 18.8601 5.97596 18.6632 5.66289 18.3503C5.3463 18.0338 5.15282 17.7349 4.99101 17.3165C4.86789 17 4.72015 16.5218 4.68145 15.6462C4.63924 14.6968 4.62869 14.412 4.62869 12.0104C4.62869 9.60519 4.63924 9.32037 4.68145 8.37448C4.72015 7.49541 4.86789 7.0207 4.99101 6.70424C5.15282 6.2858 5.34981 5.98339 5.66289 5.67044C5.97948 5.35397 6.27848 5.16058 6.69709 4.99882C7.01368 4.87575 7.49209 4.72807 8.36799 4.68939C9.31425 4.64719 9.59918 4.63664 12.0053 4.63664ZM12.0053 3.01562C9.56048 3.01562 9.25445 3.02617 8.29412 3.06837C7.33731 3.11057 6.6795 3.26528 6.10963 3.48681C5.51515 3.71889 5.01212 4.02481 4.51261 4.52764C4.00958 5.02696 3.70354 5.52979 3.47137 6.12053C3.24976 6.69369 3.09498 7.34772 3.05277 8.30416C3.01055 9.26763 3 9.57355 3 12.0174C3 14.4612 3.01055 14.7671 3.05277 15.7271C3.09498 16.6835 3.24976 17.3411 3.47137 17.9107C3.70354 18.505 4.00958 19.0078 4.51261 19.5071C5.01212 20.0064 5.51515 20.3159 6.10612 20.5444C6.6795 20.766 7.33379 20.9207 8.2906 20.9629C9.25093 21.0051 9.55697 21.0156 12.0018 21.0156C14.4466 21.0156 14.7526 21.0051 15.7129 20.9629C16.6697 20.9207 17.3275 20.766 17.8974 20.5444C18.4884 20.3159 18.9914 20.0064 19.4909 19.5071C19.9904 19.0078 20.3 18.505 20.5286 17.9142C20.7502 17.3411 20.905 16.687 20.9472 15.7306C20.9894 14.7707 21 14.4647 21 12.0209C21 9.57706 20.9894 9.27114 20.9472 8.31119C20.905 7.35475 20.7502 6.6972 20.5286 6.12756C20.307 5.52979 20.001 5.02696 19.4979 4.52764C18.9984 4.02832 18.4954 3.71889 17.9044 3.49033C17.3311 3.2688 16.6768 3.11408 15.72 3.07189C14.7561 3.02617 14.4501 3.01562 12.0053 3.01562Z" fill="white"/>
<path d="M12.0052 7.39331C9.45131 7.39331 7.37939 9.46442 7.37939 12.0173C7.37939 14.5701 9.45131 16.6412 12.0052 16.6412C14.559 16.6412 16.6309 14.5701 16.6309 12.0173C16.6309 9.46442 14.559 7.39331 12.0052 7.39331ZM12.0052 15.0167C10.3483 15.0167 9.00457 13.6734 9.00457 12.0173C9.00457 10.3611 10.3483 9.01785 12.0052 9.01785C13.662 9.01785 15.0057 10.3611 15.0057 12.0173C15.0057 13.6734 13.662 15.0167 12.0052 15.0167Z" fill="white"/>
<path d="M17.8937 7.21061C17.8937 7.80839 17.4083 8.29012 16.8138 8.29012C16.2158 8.29012 15.7339 7.80487 15.7339 7.21061C15.7339 6.61284 16.2193 6.1311 16.8138 6.1311C17.4083 6.1311 17.8937 6.61636 17.8937 7.21061Z" fill="white"/>
</svg>
