<svg width="24" height="24" viewBox="0 0 24 24" fill="none" xmlns="http://www.w3.org/2000/svg">
<path d="M16.8 3.125C17.6333 3.14167 18.3416 3.43733 18.925 4.012C19.5083 4.58733 19.8 5.29167 19.8 6.125C19.8 6.275 19.7916 6.49167 19.775 6.775C19.7583 7.05833 19.725 7.4 19.675 7.8L18.275 17.875C18.2416 18.2583 18.075 18.5667 17.775 18.8C17.475 19.0333 17.125 19.15 16.725 19.15C16.4583 19.15 16.225 19.075 16.025 18.925C15.825 18.775 15.65 18.6 15.5 18.4L12.525 14.35C12.4583 14.2667 12.3793 14.1957 12.288 14.137C12.196 14.079 12.0916 14.05 11.975 14.05C11.8583 14.05 11.675 14.1667 11.425 14.4L8.52495 18.325C8.35828 18.5417 8.16662 18.7333 7.94995 18.9C7.73328 19.0667 7.49162 19.15 7.22495 19.15C6.82495 19.15 6.47929 19.0293 6.18795 18.788C5.89595 18.546 5.73328 18.2333 5.69995 17.85L4.32495 7.8C4.27495 7.4 4.24162 7.05833 4.22495 6.775C4.20828 6.49167 4.19995 6.275 4.19995 6.125C4.19995 5.29167 4.49162 4.58333 5.07495 4C5.65828 3.41667 6.36662 3.125 7.19995 3.125C7.68328 3.125 8.09595 3.204 8.43795 3.362C8.77928 3.52067 9.11662 3.69167 9.44995 3.875C9.78328 4.05833 10.15 4.229 10.55 4.387C10.95 4.54567 11.4333 4.625 12 4.625C12.5833 4.625 13.075 4.54567 13.475 4.387C13.875 4.229 14.2416 4.05833 14.575 3.875C14.9083 3.69167 15.246 3.52067 15.588 3.362C15.9293 3.204 16.3333 3.125 16.8 3.125ZM16.8 4.125C16.4166 4.125 16.0793 4.204 15.788 4.362C15.496 4.52067 15.1833 4.69167 14.85 4.875C14.5166 5.05833 14.1293 5.229 13.688 5.387C13.246 5.54567 12.6833 5.625 12 5.625C11.35 5.625 10.8043 5.54567 10.363 5.387C9.92095 5.229 9.52495 5.05833 9.17495 4.875C8.84162 4.69167 8.52495 4.52067 8.22495 4.362C7.92495 4.204 7.58328 4.125 7.19995 4.125C6.64995 4.125 6.17895 4.321 5.78695 4.713C5.39562 5.10433 5.19995 5.575 5.19995 6.125C5.19995 6.25833 5.20828 6.45 5.22495 6.7C5.24162 6.95 5.27495 7.24167 5.32495 7.575L6.69995 17.7C6.71662 17.8333 6.77495 17.9373 6.87495 18.012C6.97495 18.0873 7.09162 18.125 7.22495 18.125C7.34162 18.125 7.44162 18.0793 7.52495 17.988C7.60828 17.896 7.69162 17.8 7.77495 17.7L10.6 13.85C10.7666 13.6167 10.971 13.425 11.213 13.275C11.4543 13.125 11.7166 13.05 12 13.05C12.2833 13.05 12.546 13.125 12.788 13.275C13.0293 13.425 13.2333 13.6167 13.4 13.85L16.275 17.775L16.475 18.025C16.5416 18.1083 16.6333 18.15 16.75 18.15C16.8833 18.15 17.0043 18.1127 17.113 18.038C17.221 17.9627 17.2833 17.8583 17.3 17.725L18.675 7.575C18.725 7.24167 18.7583 6.95 18.775 6.7C18.7916 6.45 18.8 6.25833 18.8 6.125C18.8 5.575 18.604 5.10433 18.212 4.713C17.8206 4.321 17.35 4.125 16.8 4.125Z" fill="white"/>
</svg>
