<svg width="24" height="24" viewBox="0 0 24 24" fill="none" xmlns="http://www.w3.org/2000/svg">
<path d="M4.9 19.8C4.73333 19.75 4.58767 19.6627 4.463 19.538C4.33767 19.4127 4.25 19.2667 4.2 19.1L19.1 4.2C19.2667 4.25 19.4127 4.33733 19.538 4.462C19.6627 4.58733 19.7583 4.73333 19.825 4.9L4.9 19.8ZM4 13.525V12.1L12.1 4H13.525L4 13.525ZM4 6.35V5.625C4 5.15833 4.15433 4.771 4.463 4.463C4.771 4.15433 5.15833 4 5.625 4H6.35L4 6.35ZM17.65 20L20 17.65V18.375C20 18.8417 19.846 19.2293 19.538 19.538C19.2293 19.846 18.8417 20 18.375 20H17.65ZM10.475 20L20 10.475V11.9L11.9 20H10.475Z" fill="white"/>
</svg>
