<svg width="20" height="21" viewBox="0 0 20 21" fill="none" xmlns="http://www.w3.org/2000/svg">
<path d="M10 0.015625C4.478 0.015625 0 4.49362 0 10.0156C0 15.5376 4.478 20.0156 10 20.0156C15.522 20.0156 20 15.5376 20 10.0156C20 4.49362 15.524 0.015625 10 0.015625ZM4.934 10.3516L4.976 10.2836L7.578 6.21363C7.616 6.15563 7.706 6.16162 7.734 6.22563C8.168 7.19963 8.544 8.41162 8.368 9.16562C8.294 9.47563 8.088 9.89563 7.856 10.2836C7.826 10.3396 7.794 10.3956 7.758 10.4496C7.742 10.4736 7.714 10.4876 7.684 10.4876H5.01C4.938 10.4876 4.896 10.4096 4.934 10.3516ZM16.528 11.7516C16.528 11.7896 16.506 11.8216 16.474 11.8356C16.272 11.9216 15.582 12.2396 15.296 12.6376C14.564 13.6556 14.006 15.1116 12.756 15.1116H7.544C5.696 15.1116 4.2 13.6096 4.2 11.7556V11.6956C4.2 11.6476 4.24 11.6076 4.29 11.6076H7.194C7.252 11.6076 7.294 11.6596 7.29 11.7176C7.268 11.9056 7.304 12.0996 7.394 12.2756C7.566 12.6256 7.924 12.8436 8.31 12.8436H9.748V11.7216H8.326C8.254 11.7216 8.21 11.6376 8.252 11.5776C8.268 11.5536 8.284 11.5296 8.304 11.5016C8.438 11.3096 8.63 11.0136 8.822 10.6756C8.952 10.4476 9.078 10.2036 9.18 9.95963C9.2 9.91563 9.216 9.86963 9.234 9.82563C9.262 9.74763 9.29 9.67362 9.31 9.60163C9.33 9.53963 9.348 9.47563 9.364 9.41562C9.412 9.20762 9.432 8.98763 9.432 8.75963C9.432 8.66963 9.428 8.57563 9.42 8.48763C9.416 8.38963 9.404 8.29163 9.392 8.19362C9.384 8.10763 9.368 8.02163 9.352 7.93363C9.33 7.80363 9.302 7.67362 9.27 7.54362L9.258 7.49363C9.234 7.40363 9.212 7.31963 9.184 7.22963C9.102 6.94963 9.01 6.67563 8.91 6.41963C8.874 6.31763 8.834 6.21962 8.792 6.12363C8.732 5.97563 8.67 5.84162 8.614 5.71562C8.584 5.65762 8.56 5.60563 8.536 5.55163C8.508 5.49163 8.48 5.43162 8.45 5.37363C8.43 5.32963 8.406 5.28763 8.39 5.24763L8.214 4.92362C8.19 4.87963 8.23 4.82562 8.278 4.83962L9.378 5.13763H9.382C9.384 5.13763 9.384 5.13763 9.386 5.13763L9.53 5.17963L9.69 5.22363L9.748 5.23962V4.58763C9.748 4.27163 10 4.01562 10.314 4.01562C10.47 4.01562 10.612 4.07963 10.712 4.18363C10.814 4.28763 10.878 4.42963 10.878 4.58763V5.55762L10.996 5.58962C11.004 5.59363 11.014 5.59763 11.022 5.60362C11.05 5.62362 11.092 5.65562 11.144 5.69562C11.186 5.72762 11.23 5.76762 11.282 5.80963C11.388 5.89563 11.516 6.00562 11.654 6.13162C11.69 6.16362 11.726 6.19562 11.76 6.22962C11.938 6.39563 12.138 6.58962 12.33 6.80562C12.384 6.86763 12.436 6.92762 12.49 6.99362C12.542 7.05962 12.6 7.12362 12.648 7.18762C12.714 7.27362 12.782 7.36362 12.844 7.45762C12.872 7.50162 12.906 7.54763 12.932 7.59162C13.012 7.70962 13.08 7.83162 13.146 7.95363C13.174 8.00963 13.202 8.07162 13.226 8.13163C13.3 8.29562 13.358 8.46163 13.394 8.62963C13.406 8.66563 13.414 8.70362 13.418 8.73962V8.74762C13.43 8.79562 13.434 8.84762 13.438 8.90162C13.454 9.07162 13.446 9.24362 13.41 9.41562C13.394 9.48763 13.374 9.55562 13.35 9.62963C13.324 9.69963 13.3 9.77162 13.268 9.84163C13.206 9.98362 13.134 10.1276 13.048 10.2596C13.02 10.3096 12.986 10.3616 12.954 10.4116C12.918 10.4636 12.88 10.5136 12.848 10.5616C12.802 10.6236 12.754 10.6876 12.704 10.7456C12.66 10.8056 12.616 10.8656 12.566 10.9196C12.498 11.0016 12.432 11.0776 12.362 11.1516C12.322 11.1996 12.278 11.2496 12.232 11.2936C12.188 11.3436 12.142 11.3876 12.102 11.4276C12.032 11.4976 11.976 11.5496 11.928 11.5956L11.814 11.6976C11.798 11.7136 11.776 11.7216 11.754 11.7216H10.878V12.8436H11.98C12.226 12.8436 12.46 12.7576 12.65 12.5956C12.714 12.5396 12.996 12.2956 13.33 11.9276C13.342 11.9136 13.356 11.9056 13.372 11.9016L16.414 11.0216C16.472 11.0056 16.528 11.0476 16.528 11.1076V11.7516Z" fill="white"/>
</svg>
