<svg width="16" height="16" viewBox="0 0 16 16" fill="none" xmlns="http://www.w3.org/2000/svg">
<path d="M8.15183 8.16369L8.15183 13.0422C8.15937 13.1447 8.12977 13.2294 8.06302 13.2962C7.99627 13.3629 7.90406 13.3925 7.7864 13.385C7.66873 13.3925 7.57653 13.3629 7.50978 13.2962C7.44302 13.2294 7.41342 13.1372 7.42096 13.0195L7.42096 8.16369L2.54249 8.16369C2.43991 8.17123 2.35336 8.13974 2.28284 8.06922C2.21232 7.9987 2.18083 7.90461 2.18837 7.78694C2.18045 7.6689 2.20987 7.57651 2.27662 7.50976C2.34337 7.44301 2.43577 7.41359 2.55381 7.42151L7.42096 7.43282L7.42096 2.55435C7.41342 2.45177 7.44284 2.36315 7.50921 2.28848C7.57596 2.21419 7.66836 2.181 7.7864 2.18892C7.90444 2.181 7.99683 2.21042 8.06358 2.27717C8.13033 2.34392 8.15975 2.43631 8.15183 2.55435L8.15183 7.43282H13.0303C13.1329 7.42528 13.2196 7.45281 13.2905 7.51541C13.361 7.57839 13.3923 7.6689 13.3844 7.78694C13.392 7.9046 13.3624 7.99681 13.2956 8.06356C13.2289 8.13031 13.1366 8.15992 13.019 8.15237L8.15183 8.16369Z" fill="white"/>
</svg>
