<svg width="24" height="24" viewBox="0 0 24 24" fill="none" xmlns="http://www.w3.org/2000/svg">
<path d="M19.125 19.8L13.225 13.9C12.725 14.3167 12.15 14.6417 11.5 14.875C10.85 15.1084 10.2 15.225 9.55005 15.225C7.93338 15.225 6.57105 14.6707 5.46305 13.562C4.35438 12.454 3.80005 11.1 3.80005 9.50002C3.80005 7.90002 4.35438 6.54569 5.46305 5.43702C6.57105 4.32902 7.92505 3.77502 9.52505 3.77502C11.125 3.77502 12.4834 4.32902 13.6 5.43702C14.7167 6.54569 15.275 7.90002 15.275 9.50002C15.275 10.2 15.15 10.875 14.9 11.525C14.65 12.175 14.325 12.725 13.925 13.175L19.875 19.125C19.9584 19.2084 20 19.3127 20 19.438C20 19.5627 19.9417 19.6834 19.8251 19.8C19.725 19.9 19.6127 19.95 19.488 19.95C19.3627 19.95 19.2417 19.9 19.125 19.8ZM9.55005 14.225C10.8667 14.225 11.9834 13.771 12.9 12.863C13.8167 11.9544 14.275 10.8334 14.275 9.50002C14.275 8.16669 13.8167 7.04569 12.9 6.13702C11.9834 5.22902 10.8667 4.77502 9.55005 4.77502C8.21672 4.77502 7.09172 5.22902 6.17505 6.13702C5.25838 7.04569 4.80005 8.16669 4.80005 9.50002C4.80005 10.8334 5.25838 11.9544 6.17505 12.863C7.09172 13.771 8.21672 14.225 9.55005 14.225Z" fill="white"/>
</svg>
