<svg width="24" height="24" viewBox="0 0 24 24" fill="none" xmlns="http://www.w3.org/2000/svg">
<path d="M11.5 19.275C11.0333 19.275 10.6083 19.1543 10.225 18.913C9.84167 18.671 9.54167 18.3583 9.325 17.975C9.225 17.7916 9.22067 17.629 9.312 17.487C9.404 17.3456 9.55 17.275 9.75 17.275C9.83333 17.275 9.92067 17.3 10.012 17.35C10.104 17.4 10.1833 17.475 10.25 17.575C10.3833 17.775 10.5627 17.9416 10.788 18.075C11.0127 18.2083 11.25 18.275 11.5 18.275C11.9167 18.275 12.2707 18.125 12.562 17.825C12.854 17.525 13 17.175 13 16.775C13 16.3583 12.854 16.004 12.562 15.712C12.2707 15.4206 11.9167 15.275 11.5 15.275H3C2.85 15.275 2.72933 15.225 2.638 15.125C2.546 15.025 2.5 14.9083 2.5 14.775C2.5 14.625 2.546 14.504 2.638 14.412C2.72933 14.3206 2.85 14.275 3 14.275H11.5C12.2 14.275 12.7917 14.5166 13.275 15C13.7583 15.4833 14 16.075 14 16.775C14 17.4583 13.7583 18.046 13.275 18.538C12.7917 19.0293 12.2 19.275 11.5 19.275ZM3 9.72498C2.85 9.72498 2.72933 9.67898 2.638 9.58698C2.546 9.49564 2.5 9.37498 2.5 9.22498C2.5 9.09164 2.546 8.97498 2.638 8.87498C2.72933 8.77498 2.85 8.72498 3 8.72498H15.5C16.0667 8.72498 16.5417 8.53331 16.925 8.14998C17.3083 7.76664 17.5 7.29164 17.5 6.72498C17.5 6.17498 17.3083 5.70398 16.925 5.31198C16.5417 4.92064 16.0667 4.72498 15.5 4.72498C15.0833 4.72498 14.7123 4.83331 14.387 5.04998C14.0623 5.26664 13.825 5.54998 13.675 5.89998C13.625 5.99998 13.5583 6.07898 13.475 6.13698C13.3917 6.19564 13.3 6.22498 13.2 6.22498C13.0167 6.22498 12.871 6.15831 12.763 6.02498C12.6543 5.89164 12.6333 5.74164 12.7 5.57498C12.9333 5.00831 13.3 4.55831 13.8 4.22498C14.3 3.89164 14.8667 3.72498 15.5 3.72498C16.35 3.72498 17.0627 4.01664 17.638 4.59998C18.2127 5.18331 18.5 5.89164 18.5 6.72498C18.5 7.57498 18.2127 8.28764 17.638 8.86298C17.0627 9.43764 16.35 9.72498 15.5 9.72498H3ZM19.725 17.275C19.5417 17.3416 19.375 17.3293 19.225 17.238C19.075 17.146 19 16.9916 19 16.775C19 16.6916 19.029 16.6083 19.087 16.525C19.1457 16.4416 19.225 16.375 19.325 16.325C19.675 16.175 19.9583 15.9376 20.175 15.613C20.3917 15.2876 20.5 14.9166 20.5 14.5C20.5 13.9333 20.3083 13.4583 19.925 13.075C19.5417 12.6916 19.0667 12.5 18.5 12.5H3C2.85 12.5 2.72933 12.45 2.638 12.35C2.546 12.25 2.5 12.1333 2.5 12C2.5 11.85 2.546 11.729 2.638 11.637C2.72933 11.5456 2.85 11.5 3 11.5H18.5C19.35 11.5 20.0627 11.7876 20.638 12.363C21.2127 12.9376 21.5 13.65 21.5 14.5C21.5 15.1166 21.3377 15.6706 21.013 16.162C20.6877 16.654 20.2583 17.025 19.725 17.275Z" fill="white"/>
</svg>
