<svg width="24" height="24" viewBox="0 0 24 24" fill="none" xmlns="http://www.w3.org/2000/svg">
<path d="M10.8 20C10.5667 20 10.375 19.925 10.225 19.775C10.075 19.625 10 19.4333 10 19.2V17H8.00004C7.71671 17 7.47904 16.904 7.28704 16.712C7.09571 16.5207 7.00004 16.2833 7.00004 16V13H6.20004C5.91671 13 5.71271 12.879 5.58804 12.637C5.46271 12.3957 5.46671 12.1417 5.60004 11.875L7.10004 9.275C7.23337 7.725 7.87504 6.45833 9.02504 5.475C10.175 4.49167 11.5 4 13 4C14.65 4 16.0627 4.579 17.238 5.737C18.4127 6.89567 19 8.3 19 9.95C19 11.2 18.6294 12.3333 17.888 13.35C17.146 14.3667 16.1834 15.15 15 15.7V19.2C15 19.4333 14.925 19.625 14.775 19.775C14.625 19.925 14.4334 20 14.2 20H10.8ZM11 19H14V15.05L14.55 14.8C15.65 14.3167 16.5 13.629 17.1 12.737C17.7 11.8457 18 10.9333 18 10C18 8.61667 17.5127 7.43767 16.538 6.463C15.5627 5.48767 14.3834 5 13 5C11.6667 5 10.5294 5.43733 9.58804 6.312C8.64604 7.18733 8.13337 8.3 8.05004 9.65L6.67504 12H8.00004V16H11V19Z" fill="white"/>
</svg>
