<svg width="20" height="17" viewBox="0 0 20 17" fill="none" xmlns="http://www.w3.org/2000/svg">
<path d="M6.2896 16.2667C13.8368 16.2667 17.9648 10.0139 17.9648 4.59147C17.9648 4.41387 17.9648 4.23707 17.9528 4.06107C18.7559 3.4802 19.4491 2.76097 20 1.93707C19.2512 2.26907 18.4567 2.48669 17.6432 2.58266C18.4998 2.06991 19.141 1.26332 19.4472 0.313065C18.6417 0.791072 17.7605 1.12792 16.8416 1.30907C16.2229 0.651213 15.4047 0.2156 14.5135 0.0696356C13.6223 -0.0763285 12.7078 0.0754941 11.9116 0.50161C11.1154 0.927725 10.4819 1.60438 10.109 2.42686C9.73605 3.24933 9.64462 4.17179 9.8488 5.05147C8.21741 4.96963 6.62146 4.54566 5.16455 3.80707C3.70763 3.06848 2.4223 2.03178 1.392 0.764265C0.867274 1.6676 0.70656 2.73696 0.942583 3.75462C1.17861 4.77228 1.79362 5.66173 2.6624 6.24187C2.00936 6.22273 1.37054 6.04656 0.8 5.72827V5.78027C0.800259 6.72764 1.12821 7.64576 1.72823 8.37891C2.32824 9.11205 3.16338 9.61507 4.092 9.80267C3.4879 9.96745 2.85406 9.99153 2.2392 9.87307C2.50151 10.6883 3.01202 11.4013 3.69937 11.9122C4.38671 12.4231 5.21652 12.7065 6.0728 12.7227C5.22203 13.3914 4.24776 13.8858 3.20573 14.1777C2.16369 14.4695 1.07435 14.553 0 14.4235C1.87653 15.6276 4.05994 16.2664 6.2896 16.2635" fill="white"/>
</svg>
